<?xml version="1.0" encoding="UTF-8"?>
<svg version="1.1" xmlns="http://www.w3.org/2000/svg" width="1000" height="1000">
<path d="M0 0 C5.28 0 10.56 0 16 0 C16 0.66 16 1.32 16 2 C17.35532837 1.99214478 17.35532837 1.99214478 18.73803711 1.98413086 C22.07951489 1.96712314 25.42094692 1.95456667 28.76245117 1.94506836 C30.21070073 1.94002899 31.65894517 1.93319747 33.10717773 1.92456055 C35.18474588 1.91247753 37.26224697 1.90676789 39.33984375 1.90234375 C40.59144287 1.89710693 41.84304199 1.89187012 43.13256836 1.88647461 C46 2 46 2 47 3 C49.04962928 3.11854912 51.10331343 3.16741891 53.15625 3.18945312 C54.47431641 3.20617065 55.79238281 3.22288818 57.15039062 3.2401123 C57.8591333 3.24679428 58.56787598 3.25347626 59.2980957 3.26036072 C61.50805436 3.28132641 63.71786331 3.30835322 65.92773438 3.33703613 C70.61843261 3.39682493 75.30919963 3.44894546 80 3.5 C85.43341919 3.55913718 90.86676443 3.62135822 96.30004883 3.69187927 C98.48321178 3.71854494 100.6663818 3.73930438 102.84960938 3.7598877 C104.16767578 3.77660522 105.48574219 3.79332275 106.84375 3.81054688 C108.01099609 3.82307495 109.17824219 3.83560303 110.38085938 3.84851074 C113 4 113 4 114 5 C115.61597566 5.09709605 117.23622122 5.12371596 118.85511112 5.12304783 C120.44130098 5.1260344 120.44130098 5.1260344 122.05953509 5.12908131 C123.23557958 5.12616847 124.41162407 5.12325563 125.62330627 5.12025452 C126.86147706 5.12110894 128.09964785 5.12196337 129.37533897 5.12284368 C132.82777739 5.12421194 136.28015983 5.12106421 139.73259151 5.11606562 C143.44971842 5.11176462 147.16684347 5.11320729 150.88397217 5.1139679 C157.32935055 5.11449335 163.77471884 5.11134428 170.22009468 5.10573006 C179.53913349 5.09761801 188.85816741 5.09500014 198.17720937 5.09374207 C213.2951443 5.09155108 228.41307385 5.08488974 243.53100586 5.07543945 C258.22045871 5.06626654 272.9099101 5.05918512 287.59936523 5.05493164 C288.50416217 5.05466892 289.40895911 5.05440619 290.34117413 5.05413551 C294.88007708 5.05283051 299.41898004 5.05156679 303.957883 5.05032361 C341.63859247 5.03994954 379.31929582 5.02232997 417 5 C417 5.66 417 6.32 417 7 C418.16571533 6.99214478 418.16571533 6.99214478 419.35498047 6.98413086 C422.86164549 6.96339844 426.36829763 6.95035179 429.875 6.9375 C431.70998047 6.92493164 431.70998047 6.92493164 433.58203125 6.91210938 C435.33193359 6.90727539 435.33193359 6.90727539 437.1171875 6.90234375 C438.73536377 6.89448853 438.73536377 6.89448853 440.38623047 6.88647461 C443 7 443 7 445 8 C448.65581171 8.26507396 452.30546633 8.44485799 455.96679688 8.60546875 C461.8993079 8.8993079 461.8993079 8.8993079 463 10 C466.29684855 10.28609016 469.59381125 10.44890147 472.8984375 10.62109375 C476 11 476 11 479 13 C481.50896686 13.45601261 481.50896686 13.45601261 484.1875 13.625 C485.08855469 13.69976562 485.98960937 13.77453125 486.91796875 13.8515625 C487.60503906 13.90054687 488.29210937 13.94953125 489 14 C489 14.66 489 15.32 489 16 C490.918125 15.9690625 490.918125 15.9690625 492.875 15.9375 C496.75 15.875 496.75 15.875 499 17 C499 17.66 499 18.32 499 19 C501.31 19 503.62 19 506 19 C506 19.66 506 20.32 506 21 C508.31 21 510.62 21 513 21 C513 21.99 513 22.98 513 24 C514.546875 23.938125 514.546875 23.938125 516.125 23.875 C519.86829627 23.99575149 522.53734547 24.64872018 526 26 C526 26.99 526 27.98 526 29 C527.65 29 529.3 29 531 29 C531 29.66 531 30.32 531 31 C532.32 31 533.64 31 535 31 C535.33 31.66 535.66 32.32 536 33 C538.02463255 33.65213292 538.02463255 33.65213292 540 34 C540 34.66 540 35.32 540 36 C541.65 36 543.3 36 545 36 C545 36.66 545 37.32 545 38 C545.99 38.33 546.98 38.66 548 39 C548 39.66 548 40.32 548 41 C548.78375 41.144375 549.5675 41.28875 550.375 41.4375 C553 42 553 42 555 43 C555 43.99 555 44.98 555 46 C555.99 46 556.98 46 558 46 C558 46.66 558 47.32 558 48 C558.8971875 48.433125 558.8971875 48.433125 559.8125 48.875 C562 50 562 50 565 52 C565 52.66 565 53.32 565 54 C565.66 54 566.32 54 567 54 C567.33 54.99 567.66 55.98 568 57 C568.66 57.33 569.32 57.66 570 58 C570 58.99 570 59.98 570 61 C570.66 61 571.32 61 572 61 C572 61.66 572 62.32 572 63 C572.99 63 573.98 63 575 63 C575 63.99 575 64.98 575 66 C575.66 66 576.32 66 577 66 C577 67.32 577 68.64 577 70 C577.99 70.33 578.98 70.66 580 71 C582.72298804 75.01875476 584.13774852 79.25761684 585 84 C585.66 84.33 586.32 84.66 587 85 C587.37400786 87.32716 587.70764733 89.66117862 588 92 C588.33 92.33 588.66 92.66 589 93 C589.28101946 95.31952569 589.44782625 97.63885514 589.62109375 99.96875 C589.74613281 100.6390625 589.87117187 101.309375 590 102 C590.66 102.33 591.32 102.66 592 103 C592 117.85 592 132.7 592 148 C591.01 148.33 590.02 148.66 589 149 C589 152.3 589 155.6 589 159 C588.34 159 587.68 159 587 159 C587 160.65 587 162.3 587 164 C586.01 164 585.02 164 584 164 C584 166.31 584 168.62 584 171 C583.34 171 582.68 171 582 171 C582 171.99 582 172.98 582 174 C581.34 174 580.68 174 580 174 C579.67 175.65 579.34 177.3 579 179 C578.34 179 577.68 179 577 179 C577 179.66 577 180.32 577 181 C576.34 181 575.68 181 575 181 C575 181.99 575 182.98 575 184 C573.3777546 185.70993434 571.70586575 187.37347684 570 189 C569.2575 190.1446875 569.2575 190.1446875 568.5 191.3125 C567 193 567 193 564.3125 193.25 C563.549375 193.1675 562.78625 193.085 562 193 C562 193.99 562 194.98 562 196 C561.34 196 560.68 196 560 196 C560 196.66 560 197.32 560 198 C559.01 198 558.02 198 557 198 C556.67 198.99 556.34 199.98 556 201 C553.01540871 202.95542188 551.73585209 203 548 203 C547.67 203.99 547.34 204.98 547 206 C545.68 206 544.36 206 543 206 C543 206.66 543 207.32 543 208 C541.35 208 539.7 208 538 208 C538 208.66 538 209.32 538 210 C535.69 210.33 533.38 210.66 531 211 C531 211.66 531 212.32 531 213 C527.7 213 524.4 213 521 213 C520.67 213.99 520.34 214.98 520 216 C517.94921875 216.22786458 515.8984375 216.45572917 513.84765625 216.68359375 C511.98859771 216.81886614 511.98859771 216.81886614 511 218 C509.00458104 218.22528924 507.00840136 218.44761095 505.0078125 218.62109375 C502.69284593 218.92253842 502.69284593 218.92253842 500 221 C497.23344676 221.14245897 494.57346694 221.18769445 491.8125 221.125 C491.06291016 221.11597656 490.31332031 221.10695313 489.54101562 221.09765625 C487.69387346 221.07412578 485.84689588 221.03825561 484 221 C484 221.66 484 222.32 484 223 C477.4 223 470.8 223 464 223 C464.33 223.66 464.66 224.32 465 225 C468.27555608 225.47001033 468.27555608 225.47001033 472.0625 225.625 C473.35285156 225.69976562 474.64320313 225.77453125 475.97265625 225.8515625 C477.47119141 225.92503906 477.47119141 225.92503906 479 226 C479 226.66 479 227.32 479 228 C479.58007812 227.96519531 480.16015625 227.93039062 480.7578125 227.89453125 C486.009134 227.71255476 489.39511219 228.16622289 494 231 C494 231.66 494 232.32 494 233 C496.31 233 498.62 233 501 233 C501 233.66 501 234.32 501 235 C502.65 235 504.3 235 506 235 C506 235.99 506 236.98 506 238 C507.65 238 509.3 238 511 238 C511 238.66 511 239.32 511 240 C512.65 240.33 514.3 240.66 516 241 C516 241.66 516 242.32 516 243 C516.66 243 517.32 243 518 243 C518 243.66 518 244.32 518 245 C519.65 245 521.3 245 523 245 C523 245.99 523 246.98 523 248 C523.99 248 524.98 248 526 248 C526 248.66 526 249.32 526 250 C526.66 250 527.32 250 528 250 C528 250.99 528 251.98 528 253 C528.99 253 529.98 253 531 253 C531 253.66 531 254.32 531 255 C531.66 255 532.32 255 533 255 C533 255.66 533 256.32 533 257 C534.65 257.33 536.3 257.66 538 258 C538 258.66 538 259.32 538 260 C538.66 260 539.32 260 540 260 C540 260.99 540 261.98 540 263 C540.66 263 541.32 263 542 263 C542.33 264.32 542.66 265.64 543 267 C543.66 267 544.32 267 545 267 C545 267.99 545 268.98 545 270 C545.99 270 546.98 270 548 270 C548 270.66 548 271.32 548 272 C548.66 272 549.32 272 550 272 C550 272.99 550 273.98 550 275 C550.99 275 551.98 275 553 275 C553 275.66 553 276.32 553 277 C553.66 277 554.32 277 555 277 C557.04169485 279.90548882 558 281.40142046 558 285 C558.66 285 559.32 285 560 285 C560 285.66 560 286.32 560 287 C560.66 287 561.32 287 562 287 C562 288.65 562 290.3 562 292 C562.99 292 563.98 292 565 292 C565.66 293.65 566.32 295.3 567 297 C567.66 297 568.32 297 569 297 C569.33 298.65 569.66 300.3 570 302 C570.66 302 571.32 302 572 302 C572 302.99 572 303.98 572 305 C572.66 305 573.32 305 574 305 C574.33 306.32 574.66 307.64 575 309 C575.66 309 576.32 309 577 309 C577 310.65 577 312.3 577 314 C577.99 314 578.98 314 580 314 C580 314.99 580 315.98 580 317 C580.66 317 581.32 317 582 317 C582.268125 318.134375 582.53625 319.26875 582.8125 320.4375 C583.4003125 322.2009375 583.4003125 322.2009375 584 324 C584.99 324.33 585.98 324.66 587 325 C587 326.32 587 327.64 587 329 C587.66 329 588.32 329 589 329 C589 330.65 589 332.3 589 334 C589.99 334 590.98 334 592 334 C594 337 594 337 594 341 C594.99 341 595.98 341 597 341 C597 342.65 597 344.3 597 346 C597.66 346 598.32 346 599 346 C599 346.99 599 347.98 599 349 C599.66 349 600.32 349 601 349 C601.33 350.65 601.66 352.3 602 354 C602.66 354 603.32 354 604 354 C604 355.32 604 356.64 604 358 C604.66 358 605.32 358 606 358 C606 358.99 606 359.98 606 361 C606.99 361 607.98 361 609 361 C609 362.65 609 364.3 609 366 C609.66 366 610.32 366 611 366 C611 367.65 611 369.3 611 371 C611.99 371 612.98 371 614 371 C614 371.66 614 372.32 614 373 C614.66 373 615.32 373 616 373 C616 374.65 616 376.3 616 378 C616.99 378 617.98 378 619 378 C619 379.65 619 381.3 619 383 C619.66 383 620.32 383 621 383 C621 383.99 621 384.98 621 386 C621.99 386 622.98 386 624 386 C624 387.32 624 388.64 624 390 C624.66 390 625.32 390 626 390 C626 390.99 626 391.98 626 393 C626.66 393 627.32 393 628 393 C631 397.38461538 631 397.38461538 631 400 C631.66 400 632.32 400 633 400 C633 400.99 633 401.98 633 403 C633.66 403 634.32 403 635 403 C635.33 404.65 635.66 406.3 636 408 C636.66 408 637.32 408 638 408 C638 408.66 638 409.32 638 410 C638.99 410.33 639.98 410.66 641 411 C641 411.66 641 412.32 641 413 C641.66 413 642.32 413 643 413 C643 414.32 643 415.64 643 417 C643.99 417.33 644.98 417.66 646 418 C646 418.66 646 419.32 646 420 C646.66 420 647.32 420 648 420 C648 420.66 648 421.32 648 422 C648.99 422.33 649.98 422.66 651 423 C651 423.66 651 424.32 651 425 C651.598125 425.12375 652.19625 425.2475 652.8125 425.375 C655 426 655 426 658 428 C658 428.66 658 429.32 658 430 C658.66 430 659.32 430 660 430 C660 430.66 660 431.32 660 432 C661.65 432.33 663.3 432.66 665 433 C665 433.66 665 434.32 665 435 C666.65 435 668.3 435 670 435 C670 435.66 670 436.32 670 437 C671.65 437 673.3 437 675 437 C675 437.99 675 438.98 675 440 C677.97 440 680.94 440 684 440 C684 440.66 684 441.32 684 442 C685.32 442 686.64 442 688 442 C688 441.34 688 440.68 688 440 C690.97 440 693.94 440 697 440 C697.33 439.01 697.66 438.02 698 437 C699.32 437 700.64 437 702 437 C702 436.34 702 435.68 702 435 C703.65 435 705.3 435 707 435 C707.268125 434.360625 707.53625 433.72125 707.8125 433.0625 C709 431 709 431 712 430 C712 429.34 712 428.68 712 428 C713.375 426.375 713.375 426.375 715 425 C715.66 425 716.32 425 717 425 C717 424.34 717 423.68 717 423 C717.66 423 718.32 423 719 423 C719 421.35 719 419.7 719 418 C719.99 418 720.98 418 722 418 C721.9690625 416.7934375 721.9690625 416.7934375 721.9375 415.5625 C722 413 722 413 723 412 C723.20775561 410.33795513 723.36718255 408.66970509 723.5 407 C723.88888889 402.11111111 723.88888889 402.11111111 725 401 C725.10941558 398.70939759 725.14693778 396.41536354 725.15821838 394.12217712 C725.16562535 393.03058701 725.16562535 393.03058701 725.17318195 391.91694456 C725.18863165 389.46017575 725.19693766 387.00343322 725.20532227 384.54663086 C725.21489493 382.79280869 725.22490464 381.03898887 725.23532104 379.28517151 C725.2624425 374.50853845 725.28341273 369.73189544 725.30332303 364.95522761 C725.32513809 359.96903958 725.35254862 354.98288247 725.37937927 349.99671936 C725.42936694 340.54778948 725.47428316 331.09884249 725.51740164 321.64987904 C725.57593626 308.88637844 725.64225563 296.12291848 725.70815182 283.35945415 C725.81182149 263.23966345 725.90504746 243.1198381 726 223 C678.81 223 631.62 223 583 223 C582.12319986 219.49279943 581.86547511 216.87957211 581.875 213.3125 C581.87242187 212.33925781 581.86984375 211.36601562 581.8671875 210.36328125 C582 208 582 208 583 207 C584.84761268 206.90351752 586.6989581 206.87812682 588.54908752 206.87974548 C590.35220949 206.87767924 590.35220949 206.87767924 592.19175816 206.87557125 C593.54133184 206.87911851 594.89090529 206.88275641 596.24047852 206.88647461 C597.67236039 206.88678072 599.10424242 206.88664783 600.53612423 206.88610935 C604.38353921 206.88588285 608.23092332 206.89169426 612.07833099 206.89871979 C615.68369142 206.9043991 619.2890442 206.90468205 622.89440918 206.90539551 C633.45044357 206.91065059 644.00647217 206.92461163 654.5625 206.9375 C678.136875 206.958125 701.71125 206.97875 726 207 C726 156.18 726 105.36 726 53 C725.34 53 724.68 53 724 53 C724 49.7 724 46.4 724 43 C723.34 43 722.68 43 722 43 C722 40.69 722 38.38 722 36 C721.01 36 720.02 36 719 36 C719 35.01 719 34.02 719 33 C718.34 33 717.68 33 717 33 C717 31.35 717 29.7 717 28 C716.01 28 715.02 28 714 28 C714 27.34 714 26.68 714 26 C713.34 26 712.68 26 712 26 C712 25.34 712 24.68 712 24 C711.01 23.67 710.02 23.34 709 23 C709 22.34 709 21.68 709 21 C707.68 21 706.36 21 705 21 C705 20.34 705 19.68 705 19 C702.525 18.505 702.525 18.505 700 18 C700 17.34 700 16.68 700 16 C699.030625 16.020625 698.06125 16.04125 697.0625 16.0625 C694 16 694 16 693 15 C690.65012738 14.76472227 688.29443961 14.58613583 685.9375 14.4375 C684.64714844 14.35371094 683.35679687 14.26992188 682.02734375 14.18359375 C681.02832031 14.12300781 680.02929688 14.06242187 679 14 C678.67 13.01 678.34 12.02 678 11 C675.36 11 672.72 11 670 11 C670.33 9.68 670.66 8.36 671 7 C756.8 7 842.6 7 931 7 C931 8.32 931 9.64 931 11 C928.03 11 925.06 11 922 11 C921.67 11.99 921.34 12.98 921 14 C919.71222656 14.06058594 918.42445313 14.12117188 917.09765625 14.18359375 C915.41925841 14.26798247 913.74087364 14.3526313 912.0625 14.4375 C911.21236328 14.47681641 910.36222656 14.51613281 909.48632812 14.55664062 C908.67744141 14.59853516 907.86855469 14.64042969 907.03515625 14.68359375 C906.2862915 14.72025146 905.53742676 14.75690918 904.76586914 14.79467773 C902.97538674 14.81771063 902.97538674 14.81771063 902 16 C900.48071962 16.07179964 898.95832518 16.08392007 897.4375 16.0625 C896.61121094 16.05347656 895.78492188 16.04445313 894.93359375 16.03515625 C893.97646484 16.01775391 893.97646484 16.01775391 893 16 C893 16.99 893 17.98 893 19 C891.35 19 889.7 19 888 19 C888 19.66 888 20.32 888 21 C886.35 21 884.7 21 883 21 C882.67 21.99 882.34 22.98 882 24 C881.34 24 880.68 24 880 24 C880 24.66 880 25.32 880 26 C878.68 26 877.36 26 876 26 C875.67 27.32 875.34 28.64 875 30 C874.34 30 873.68 30 873 30 C873 30.99 873 31.98 873 33 C872.34 33 871.68 33 871 33 C871 33.99 871 34.98 871 36 C870.01 36 869.02 36 868 36 C868.0309375 37.4540625 868.0309375 37.4540625 868.0625 38.9375 C868 42 868 42 867 43 C866.63239269 45.32817964 866.29758419 47.6618385 866 50 C865.01 50 864.02 50 863 50 C863.08169242 95.06349191 863.17382723 140.1269519 863.28005161 185.19039302 C863.29257113 190.50534647 863.3050038 195.82030013 863.31738281 201.13525391 C863.31984881 202.19340691 863.3223148 203.25155992 863.32485552 204.34177817 C863.36462588 221.49611309 863.39735425 238.65045462 863.42749982 255.80480884 C863.45856661 273.39461149 863.49715539 290.98438593 863.54279006 308.57415688 C863.57073112 319.43608709 863.59273969 330.29799656 863.60726251 341.15995313 C863.61776973 348.5990266 863.63555476 356.03806 863.65916704 363.47710334 C863.67259075 367.77497805 863.68270597 372.07279639 863.68421364 376.37069321 C863.68566246 380.29992172 863.69618151 384.2290142 863.71413441 388.15820099 C863.71901254 389.5848682 863.7204669 391.01155175 863.71827881 392.43822561 C863.71580443 394.36727873 863.72664601 396.29633556 863.73828697 398.22535515 C863.74170446 399.83726795 863.74170446 399.83726795 863.74519098 401.48174465 C863.74916199 404.17071506 863.74916199 404.17071506 866 406 C866.125 409.625 866.125 409.625 866 413 C866.66 413 867.32 413 868 413 C868 414.65 868 416.3 868 418 C868.99 418 869.98 418 871 418 C871 419.65 871 421.3 871 423 C871.66 423 872.32 423 873 423 C873 423.66 873 424.32 873 425 C873.99 425 874.98 425 876 425 C876 425.66 876 426.32 876 427 C876.66 427 877.32 427 878 427 C878 427.99 878 428.98 878 430 C878.99 430 879.98 430 881 430 C881 430.66 881 431.32 881 432 C882.32 432 883.64 432 885 432 C885 432.99 885 433.98 885 435 C886.65 435 888.3 435 890 435 C890 435.66 890 436.32 890 437 C891.98 437 893.96 437 896 437 C896.33 437.99 896.66 438.98 897 440 C897.85464844 439.98839844 898.70929687 439.97679687 899.58984375 439.96484375 C901.24693359 439.95130859 901.24693359 439.95130859 902.9375 439.9375 C904.03964844 439.92589844 905.14179687 439.91429687 906.27734375 439.90234375 C909 440 909 440 910 441 C911.55948542 441.15686249 913.12542668 441.25076639 914.69140625 441.31640625 C915.63564453 441.35830078 916.57988281 441.40019531 917.55273438 441.44335938 C919.04256836 441.50233398 919.04256836 441.50233398 920.5625 441.5625 C921.55958984 441.60568359 922.55667969 441.64886719 923.58398438 441.69335938 C926.0558415 441.79980298 928.5278031 441.90181928 931 442 C931 443.65 931 445.3 931 447 C927.28569527 449.36765411 924.050265 449.24859049 919.71425247 449.24609566 C918.60566558 449.24955719 918.60566558 449.24955719 917.47468299 449.25308865 C914.98459894 449.25840554 912.49477069 449.24939061 910.00469971 449.24050903 C908.20695871 449.24138075 906.40921796 449.24313112 904.61147857 449.24568737 C899.66079901 449.25017146 894.71020556 449.24214264 889.75953698 449.23213124 C884.42486077 449.22351432 879.09018963 449.22641565 873.75550842 449.22793579 C864.50927831 449.22898576 855.26307636 449.2226975 846.01685333 449.21146011 C832.64828161 449.1952232 819.27972355 449.18999896 805.91114303 449.18748413 C784.2228181 449.18310418 762.53450818 449.16978696 740.84619141 449.15087891 C719.77490311 449.13252786 698.70361889 449.11836756 677.63232422 449.10986328 C676.33403204 449.10933783 675.03573985 449.10881239 673.69810548 449.10827102 C667.18511705 449.10566099 660.67212859 449.10313356 654.15914011 449.10064721 C600.10608302 449.07990538 546.05304224 449.04467171 492 449 C492 448.34 492 447.68 492 447 C491.01 447 490.02 447 489 447 C489 446.01 489 445.02 489 444 C488.34 444 487.68 444 487 444 C487 442.68 487 441.36 487 440 C486.01 439.67 485.02 439.34 484 439 C484 437.68 484 436.36 484 435 C483.34 435 482.68 435 482 435 C479.95830515 432.09451118 479 430.59857954 479 427 C478.34 427 477.68 427 477 427 C477 425.35 477 423.7 477 422 C476.01 422 475.02 422 474 422 C474 420.35 474 418.7 474 417 C473.34 417 472.68 417 472 417 C472 416.34 472 415.68 472 415 C471.34 415 470.68 415 470 415 C469.67 413.35 469.34 411.7 469 410 C468.34 410 467.68 410 467 410 C467 408.35 467 406.7 467 405 C466.34 405 465.68 405 465 405 C465 403.68 465 402.36 465 401 C464.01 400.67 463.02 400.34 462 400 C460 397 460 397 460 393 C459.01 393 458.02 393 457 393 C457 391.35 457 389.7 457 388 C456.34 388 455.68 388 455 388 C455 387.01 455 386.02 455 385 C454.34 385 453.68 385 453 385 C452.67 383.35 452.34 381.7 452 380 C451.34 380 450.68 380 450 380 C450 378.68 450 377.36 450 376 C449.01 375.67 448.02 375.34 447 375 C447 373.68 447 372.36 447 371 C446.34 371 445.68 371 445 371 C445 370.01 445 369.02 445 368 C444.34 368 443.68 368 443 368 C443 366.35 443 364.7 443 363 C442.01 363 441.02 363 440 363 C440 361.35 440 359.7 440 358 C439.34 358 438.68 358 438 358 C435 353.61538462 435 353.61538462 435 351 C434.34 351 433.68 351 433 351 C433 349.35 433 347.7 433 346 C432.01 346 431.02 346 430 346 C430 344.35 430 342.7 430 341 C429.34 341 428.68 341 428 341 C428 340.01 428 339.02 428 338 C427.34 338 426.68 338 426 338 C423.56839395 334.63316085 423 333.26649636 423 329 C422.34 329 421.68 329 421 329 C421 327.35 421 325.7 421 324 C420.01 324 419.02 324 418 324 C418 323.01 418 322.02 418 321 C417.34 321 416.68 321 416 321 C416 319.35 416 317.7 416 316 C415.01 316 414.02 316 413 316 C413 314.68 413 313.36 413 312 C412.34 312 411.68 312 411 312 C410.87625 311.360625 410.7525 310.72125 410.625 310.0625 C410.315625 309.0415625 410.315625 309.0415625 410 308 C409.34 307.67 408.68 307.34 408 307 C408 306.01 408 305.02 408 304 C407.34 304 406.68 304 406 304 C406 302.35 406 300.7 406 299 C405.01 299 404.02 299 403 299 C403 297.35 403 295.7 403 294 C402.34 294 401.68 294 401 294 C401 293.01 401 292.02 401 291 C400.34 291 399.68 291 399 291 C399 289.68 399 288.36 399 287 C398.01 287 397.02 287 396 287 C396 285.35 396 283.7 396 282 C395.34 282 394.68 282 394 282 C394 280.35 394 278.7 394 277 C393.01 277 392.02 277 391 277 C391 276.01 391 275.02 391 274 C390.34 274 389.68 274 389 274 C389 272.68 389 271.36 389 270 C388.01 269.67 387.02 269.34 386 269 C386 267.68 386 266.36 386 265 C385.34 265 384.68 265 384 265 C383.87625 264.360625 383.7525 263.72125 383.625 263.0625 C383.315625 262.0415625 383.315625 262.0415625 383 261 C382.34 260.67 381.68 260.34 381 260 C381 259.01 381 258.02 381 257 C380.34 257 379.68 257 379 257 C378.01 254.03 377.02 251.06 376 248 C375.34 248 374.68 248 374 248 C372.23537317 244.91190305 372 243.76687864 372 240 C371.01 240 370.02 240 369 240 C369 238.35 369 236.7 369 235 C368.34 235 367.68 235 367 235 C367 234.34 367 233.68 367 233 C365.05395874 233.00785522 365.05395874 233.00785522 363.06860352 233.01586914 C358.27352585 233.03391469 353.4784512 233.04543037 348.68334961 233.05493164 C346.60456844 233.05997288 344.52579084 233.06680574 342.44702148 233.07543945 C339.46597414 233.08751422 336.48497351 233.09323024 333.50390625 233.09765625 C332.10078941 233.10539818 332.10078941 233.10539818 330.66932678 233.11329651 C329.80850998 233.11337204 328.94769318 233.11344757 328.06079102 233.11352539 C327.29912125 233.115746 326.53745148 233.11796661 325.75270081 233.12025452 C324 233 324 233 323 232 C323 228.37 323 224.74 323 221 C331.91 221 340.82 221 350 221 C350.33 220.01 350.66 219.02 351 218 C355.29 218 359.58 218 364 218 C364 217.34 364 216.68 364 216 C364.85464844 215.95101562 365.70929688 215.90203125 366.58984375 215.8515625 C368.24693359 215.73941406 368.24693359 215.73941406 369.9375 215.625 C371.59072266 215.52058594 371.59072266 215.52058594 373.27734375 215.4140625 C374.17582031 215.27742187 375.07429688 215.14078125 376 215 C376.33 214.34 376.66 213.68 377 213 C378.65 213 380.3 213 382 213 C382 212.34 382 211.68 382 211 C384.31 211 386.62 211 389 211 C389 210.01 389 209.02 389 208 C390.010625 207.7525 391.02125 207.505 392.0625 207.25 C397.39653607 205.72291709 401.76933333 202.8596432 406.3125 199.75 C409 198 409 198 411 198 C411 197.34 411 196.68 411 196 C414.465 195.01 414.465 195.01 418 194 C418 193.01 418 192.02 418 191 C418.99 191 419.98 191 421 191 C421 190.34 421 189.68 421 189 C421.66 189 422.32 189 423 189 C423.12375 188.236875 423.2475 187.47375 423.375 186.6875 C424 184 424 184 426 181 C426.66 181 427.32 181 428 181 C428 180.34 428 179.68 428 179 C428.66 179 429.32 179 430 179 C430 177.35 430 175.7 430 174 C430.99 174 431.98 174 433 174 C433 172.35 433 170.7 433 169 C433.66 169 434.32 169 435 169 C435 167.35 435 165.7 435 164 C435.99 164 436.98 164 438 164 C438 161.69 438 159.38 438 157 C438.66 157 439.32 157 440 157 C439.938125 155.081875 439.938125 155.081875 439.875 153.125 C439.8046875 150.9453125 439.8046875 150.9453125 440 149 C440.66 148.34 441.32 147.68 442 147 C442.27576987 144.6545346 442.44971306 142.29642689 442.5625 139.9375 C442.90277778 133.09722222 442.90277778 133.09722222 444 132 C444.15825258 130.00217874 444.25119171 127.99911166 444.31640625 125.99609375 C444.35830078 124.78115234 444.40019531 123.56621094 444.44335938 122.31445312 C444.50233398 120.39536133 444.50233398 120.39536133 444.5625 118.4375 C444.60568359 117.15423828 444.64886719 115.87097656 444.69335938 114.54882812 C444.799848 111.36600147 444.90185962 108.18309326 445 105 C444.34 105 443.68 105 443 105 C443 100.05 443 95.1 443 90 C442.01 90 441.02 90 440 90 C440 86.7 440 83.4 440 80 C439.34 80 438.68 80 438 80 C438 77.69 438 75.38 438 73 C437.01 73 436.02 73 435 73 C435 71.35 435 69.7 435 68 C434.34 68 433.68 68 433 68 C433 66.35 433 64.7 433 63 C432.01 63 431.02 63 430 63 C430 61.35 430 59.7 430 58 C429.34 58 428.68 58 428 58 C428 57.34 428 56.68 428 56 C427.34 56 426.68 56 426 56 C425.67 54.35 425.34 52.7 425 51 C424.34 51 423.68 51 423 51 C423 50.01 423 49.02 423 48 C422.34 48 421.68 48 421 48 C421 47.34 421 46.68 421 46 C420.01 46 419.02 46 418 46 C418 45.01 418 44.02 418 43 C417.34 43 416.68 43 416 43 C416 42.34 416 41.68 416 41 C415.01 41 414.02 41 413 41 C413 40.01 413 39.02 413 38 C412.34 38 411.68 38 411 38 C411 37.34 411 36.68 411 36 C409.8553125 35.814375 409.8553125 35.814375 408.6875 35.625 C406 35 406 35 403 33 C403 32.34 403 31.68 403 31 C401.68 31 400.36 31 399 31 C399 30.34 399 29.68 399 29 C397.35 28.67 395.7 28.34 394 28 C394 27.34 394 26.68 394 26 C392.35 26 390.7 26 389 26 C389 25.34 389 24.68 389 24 C387.35 24 385.7 24 384 24 C384 23.01 384 22.02 384 21 C383.030625 21.020625 382.06125 21.04125 381.0625 21.0625 C378 21 378 21 377 20 C349.52623629 14.50524726 321.01529356 17.37858505 293 17 C293.495 209.06 293.495 209.06 294 405 C294.66 405.33 295.32 405.66 296 406 C296 408.31 296 410.62 296 413 C296.66 413 297.32 413 298 413 C298 414.65 298 416.3 298 418 C298.66 418 299.32 418 300 418 C300.33 419.65 300.66 421.3 301 423 C301.66 423 302.32 423 303 423 C303 423.66 303 424.32 303 425 C303.66 425 304.32 425 305 425 C305 425.66 305 426.32 305 427 C305.99 427.33 306.98 427.66 308 428 C308 428.66 308 429.32 308 430 C308.66 430 309.32 430 310 430 C310 430.66 310 431.32 310 432 C311.65 432.33 313.3 432.66 315 433 C315 433.66 315 434.32 315 435 C316.65 435 318.3 435 320 435 C320 435.66 320 436.32 320 437 C321.98 437 323.96 437 326 437 C326.33 437.99 326.66 438.98 327 440 C330.96 440 334.92 440 339 440 C339 440.66 339 441.32 339 442 C345.93 442 352.86 442 360 442 C360.33 443.32 360.66 444.64 361 446 C359 448 359 448 357.01394308 448.24839699 C356.19146884 448.24763755 355.36899461 448.24687811 354.52159691 448.24609566 C353.57361461 448.25007775 352.62563231 448.25405985 351.64892328 448.25816262 C350.60030197 448.25233693 349.55168067 448.24651125 348.47128296 448.24050903 C346.80875565 448.24307231 346.80875565 448.24307231 345.11264193 448.24568737 C341.3736956 448.24899929 337.63492608 448.23795056 333.89599609 448.22705078 C331.22578016 448.22648703 328.55557529 448.2267143 325.88536072 448.22793579 C320.12370322 448.22898605 314.36209092 448.22269475 308.60044479 448.21146011 C300.27001083 448.19522714 291.93959879 448.18999937 283.60915072 448.18748413 C270.09456465 448.18310356 256.58000267 448.16978465 243.06542969 448.15087891 C229.93489706 448.13252947 216.80437098 448.11836839 203.67382812 448.10986328 C202.86487777 448.10933783 202.05592742 448.10881239 201.22246341 448.10827102 C197.16432141 448.105661 193.10617937 448.10313357 189.04803729 448.10064721 C155.36534071 448.07990344 121.68267331 448.04466807 88 448 C88 446.02 88 444.04 88 442 C95.26 442 102.52 442 110 442 C110 441.34 110 440.68 110 440 C113.96 440 117.92 440 122 440 C122 439.01 122 438.02 122 437 C126.17737474 435.40861915 129.53160785 434.78721942 134 435 C134 434.01 134 433.02 134 432 C134.99 432 135.98 432 137 432 C137 431.34 137 430.68 137 430 C137.99 430 138.98 430 140 430 C140 429.34 140 428.68 140 428 C141.32 427.67 142.64 427.34 144 427 C144.12375 426.401875 144.2475 425.80375 144.375 425.1875 C145 423 145 423 147 420 C147.66 420 148.32 420 149 420 C149.10957031 419.36191406 149.21914062 418.72382812 149.33203125 418.06640625 C149.49058594 417.24011719 149.64914063 416.41382813 149.8125 415.5625 C149.96332031 414.73878906 150.11414063 413.91507813 150.26953125 413.06640625 C150.51058594 412.38449219 150.75164062 411.70257812 151 411 C151.99 410.67 152.98 410.34 154 410 C154 407.03 154 404.06 154 401 C154.66 401 155.32 401 156 401 C156 273.29 156 145.58 156 14 C143.92579683 12.57170819 143.92579683 12.57170819 134 16 C131.46950598 16.07313567 128.96695163 16.09247527 126.4375 16.0625 C125.37112305 16.05573242 125.37112305 16.05573242 124.28320312 16.04882812 C122.52209987 16.03700864 120.76103964 16.01907263 119 16 C119 16.99 119 17.98 119 19 C117.2984375 19.2165625 117.2984375 19.2165625 115.5625 19.4375 C112.19222799 19.61171478 112.19222799 19.61171478 111 21 C109.48071962 21.07179964 107.95832518 21.08392007 106.4375 21.0625 C105.61121094 21.05347656 104.78492188 21.04445313 103.93359375 21.03515625 C102.97646484 21.01775391 102.97646484 21.01775391 102 21 C102 21.99 102 22.98 102 24 C100.35 24 98.7 24 97 24 C97 24.66 97 25.32 97 26 C93.7 26.66 90.4 27.32 87 28 C87 28.66 87 29.32 87 30 C85.68 30.33 84.36 30.66 83 31 C83 31.66 83 32.32 83 33 C81.35 33 79.7 33 78 33 C78 33.99 78 34.98 78 36 C75.35261084 37.4606285 74.10551666 38 71 38 C70.67 38.99 70.34 39.98 70 41 C69.34 41 68.68 41 68 41 C68 41.66 68 42.32 68 43 C67.01 43 66.02 43 65 43 C65 43.66 65 44.32 65 45 C63.68 45.33 62.36 45.66 61 46 C61 46.66 61 47.32 61 48 C60.01 48 59.02 48 58 48 C57.34 49.65 56.68 51.3 56 53 C55.01 53 54.02 53 53 53 C53 53.66 53 54.32 53 55 C52.34 55 51.68 55 51 55 C51 55.99 51 56.98 51 58 C50.01 58.495 50.01 58.495 49 59 C48.67 59.99 48.34 60.98 48 62 C47.34 62 46.68 62 46 62 C46 62.99 46 63.98 46 65 C45.34 65 44.68 65 44 65 C43.505 66.485 43.505 66.485 43 68 C42.34 68 41.68 68 41 68 C41 68.66 41 69.32 41 70 C40.34 70 39.68 70 39 70 C38.67 71.65 38.34 73.3 38 75 C37.34 75 36.68 75 36 75 C36 75.66 36 76.32 36 77 C35.34 77 34.68 77 34 77 C34 78.65 34 80.3 34 82 C33.01 82 32.02 82 31 82 C31 82.99 31 83.98 31 85 C30.34 85 29.68 85 29 85 C29 86.32 29 87.64 29 89 C27.625 90.75 27.625 90.75 26 92 C25.34 92 24.68 92 24 92 C24 93.65 24 95.3 24 97 C23.34 97 22.68 97 22 97 C21.67 98.65 21.34 100.3 21 102 C20.34 102 19.68 102 19 102 C19 103.65 19 105.3 19 107 C18.34 107 17.68 107 17 107 C16.67 108.65 16.34 110.3 16 112 C15.34 112 14.68 112 14 112 C13.855625 112.7425 13.71125 113.485 13.5625 114.25 C13.09812508 116.52027739 12.58136431 118.75759479 12 121 C11.01 121 10.02 121 9 121 C9.061875 121.66 9.12375 122.32 9.1875 123 C8.93182247 127.09084054 7.54304956 130.20666984 6 134 C5.34 134 4.68 134 4 134 C4 135.65 4 137.3 4 139 C3.34 139 2.68 139 2 139 C2.0928125 140.299375 2.0928125 140.299375 2.1875 141.625 C1.97544498 145.44199033 0.87955693 147.71077536 -1 151 C-1.66 151 -2.32 151 -3 151 C-3 153.31 -3 155.62 -3 158 C-3.66 158 -4.32 158 -5 158 C-5 159.98 -5 161.96 -5 164 C-5.99 164.33 -6.98 164.66 -8 165 C-7.95875 165.845625 -7.9175 166.69125 -7.875 167.5625 C-8.01535028 171.42213269 -8.82780164 174.33688013 -10 178 C-10.99 178 -11.98 178 -13 178 C-13 180.31 -13 182.62 -13 185 C-14.98 185 -16.96 185 -19 185 C-18.88166798 180.78228161 -18.75741398 176.56479177 -18.62768555 172.34741211 C-18.58439207 170.91288997 -18.54271301 169.47831816 -18.50268555 168.04370117 C-18.44484733 165.9808048 -18.38119247 163.91815717 -18.31640625 161.85546875 C-18.27974854 160.61434326 -18.24309082 159.37321777 -18.20532227 158.09448242 C-18 155 -18 155 -17 152 C-16.34 152 -15.68 152 -15 152 C-15.00523682 151.36908447 -15.01047363 150.73816895 -15.01586914 150.08813477 C-15.03657826 147.24626653 -15.04964066 144.40441412 -15.0625 141.5625 C-15.07087891 140.56927734 -15.07925781 139.57605469 -15.08789062 138.55273438 C-15.09111328 137.60849609 -15.09433594 136.66425781 -15.09765625 135.69140625 C-15.10289307 134.81685791 -15.10812988 133.94230957 -15.11352539 133.04125977 C-15 131 -15 131 -14 130 C-13.86750736 128.53624517 -13.79678005 127.06676971 -13.75390625 125.59765625 C-13.72103516 124.70755859 -13.68816406 123.81746094 -13.65429688 122.90039062 C-13.59322914 121.01248816 -13.53592113 119.12446023 -13.48242188 117.23632812 C-13.44826172 116.34494141 -13.41410156 115.45355469 -13.37890625 114.53515625 C-13.3538501 113.714104 -13.32879395 112.89305176 -13.30297852 112.04711914 C-13 110 -13 110 -11 108 C-10.62995706 105.77341846 -10.62995706 105.77341846 -10.5859375 103.2109375 C-10.54726563 102.26992188 -10.50859375 101.32890625 -10.46875 100.359375 C-10.4378125 99.37453125 -10.406875 98.3896875 -10.375 97.375 C-10.33632813 96.38242187 -10.29765625 95.38984375 -10.2578125 94.3671875 C-10.1633686 91.91164615 -10.07780125 89.4561159 -10 87 C-9.34 87 -8.68 87 -8 87 C-8 80.07 -8 73.14 -8 66 C-6.515 65.505 -6.515 65.505 -5 65 C-5 57.74 -5 50.48 -5 43 C-4.34 43 -3.68 43 -3 43 C-3 36.07 -3 29.14 -3 22 C-2.01 21.67 -1.02 21.34 0 21 C0 14.07 0 7.14 0 0 Z " fill="#000000" transform="translate(44,256)"/>
<path d="M0 0 C0.99 0 1.98 0 3 0 C3 2.31 3 4.62 3 7 C2.01 7 1.02 7 0 7 C0 4.69 0 2.38 0 0 Z " fill="#000000" transform="translate(368,644)"/>
<path d="M0 0 C0.66 0 1.32 0 2 0 C2 0.66 2 1.32 2 2 C1.34 2 0.68 2 0 2 C0 1.34 0 0.68 0 0 Z " fill="#000000" transform="translate(554,264)"/>
</svg>
